<svg width="512" height="512" viewBox="0 0 512 512" fill="none" xmlns="http://www.w3.org/2000/svg">
<g clip-path="url(#clip0)">
<path d="M32 34.8373C-8.23467 76.6293 -1.22705e-06 121.024 -1.22705e-06 255.893C-1.22705e-06 367.893 -19.5413 480.171 82.7307 506.603C114.667 514.816 397.632 514.816 429.525 506.56C472.107 495.573 506.752 461.035 511.488 400.811C512.149 392.405 512.149 119.531 511.467 110.955C506.432 46.8053 466.944 9.83464 414.912 2.34664C402.987 0.618639 400.597 0.106639 339.413 -2.74732e-05C122.389 0.106639 74.816 -9.55736 32 34.8373V34.8373Z" fill="black"/>
<path d="M255.957 66.9654C178.496 66.9654 104.939 60.0747 76.8427 132.181C65.2373 161.963 66.9227 200.64 66.9227 256.021C66.9227 304.619 65.3653 350.293 76.8427 379.84C104.875 451.989 179.029 445.077 255.915 445.077C330.091 445.077 406.571 452.8 435.008 379.84C446.635 349.76 444.928 311.659 444.928 256.021C444.928 182.165 449.003 134.485 413.184 98.6881C376.917 62.4214 327.872 66.9654 255.872 66.9654H255.957ZM239.019 101.035C400.597 100.779 421.163 82.8161 409.813 332.352C405.781 420.608 338.581 410.923 255.979 410.923C105.365 410.923 101.035 406.613 101.035 255.936C101.035 103.509 112.981 101.12 239.019 100.992V101.035ZM356.864 132.416C344.341 132.416 334.187 142.571 334.187 155.093C334.187 167.616 344.341 177.771 356.864 177.771C369.387 177.771 379.541 167.616 379.541 155.093C379.541 142.571 369.387 132.416 356.864 132.416V132.416ZM255.957 158.933C202.347 158.933 158.891 202.411 158.891 256.021C158.891 309.632 202.347 353.088 255.957 353.088C309.568 353.088 353.003 309.632 353.003 256.021C353.003 202.411 309.568 158.933 255.957 158.933V158.933ZM255.957 193.003C339.264 193.003 339.371 319.04 255.957 319.04C172.672 319.04 172.544 193.003 255.957 193.003Z" fill="white"/>
</g>
<defs>
<clipPath id="clip0">
<rect width="512" height="512" fill="white"/>
</clipPath>
</defs>
</svg>
