<svg width="100" height="100" viewBox="0 0 100 100" fill="none" xmlns="http://www.w3.org/2000/svg">
<rect width="100" height="100" rx="50" fill="white"/>
<path d="M56.0312 33.8125C56.0781 36.6094 56.8125 39.9063 56.9687 40.375L64.3437 36.7813C62.9687 35.9844 59.6094 34.5469 56.0312 33.8125Z" fill="#FFBA5F"/>
<path d="M36.6562 36.9531C37.9531 37.4843 39.2031 38.4531 40.375 39.2343L46.6406 38.1093C46.6562 36.5625 46.9062 35.0312 47.375 33.5468C42.7031 34.2812 38.1562 36.0781 36.6562 36.9531V36.9531Z" fill="#FFB85A"/>
<path d="M65 17.2344C62.9219 17.7031 57.25 19.2969 52.5938 24.5781C49.5469 28.0313 48 31.2031 47.2344 33.6719C46.7813 35.0781 46.5 36.6875 46.4844 38.2656L49.9688 43.1094L57.4375 39.2813C57.2812 38.8125 56.2344 36.7656 56.1875 33.9688C56.1563 32.0313 56.6094 29.7188 58.1875 27.3438C61.125 22.9063 65.1875 20.7813 66.3437 20.4688C65.7656 19.125 65.5781 18.5781 65 17.2344Z" fill="#689B2D"/>
<path d="M54.2188 26.5156C58.3438 21.6719 63.3438 19.8125 65.7969 19.125C65.5625 18.5469 65.3594 18.0312 65.0156 17.2188C62.9375 17.6875 57.2656 19.2812 52.6094 24.5625C49.5625 28.0156 48.0156 31.1875 47.25 33.6562C46.7969 35.0625 46.5156 36.6719 46.5 38.25L48.4219 40.9219C48.4844 39.2187 48.6875 36.8437 49.0313 35.7031C49.7344 33.2344 51.2344 30.0312 54.2188 26.5156V26.5156Z" fill="#8CBA43"/>
<path d="M47.2187 33.5156C47.2187 33.5313 47.2187 33.5469 47.2031 33.5469C47.2969 33.5313 47.3906 33.5156 47.5 33.5L47.2187 33.5156Z" fill="#FFB85A"/>
<path d="M53.8281 40.4531C53.5625 40.5781 53.4219 40.6563 53.4219 40.6563C53.625 40.6094 53.8281 40.5625 54.0312 40.5313C53.9531 40.5156 53.8906 40.4844 53.8281 40.4531V40.4531Z" fill="#E5952C"/>
<path d="M68.3125 79.4531C65.5 81.25 62.2344 82.2187 58.9063 82.25C63.2188 79.6094 64.9219 65.7343 64.9219 62.1562C64.9219 51.6406 63.2813 46.2343 60.1094 42.1875C58.5781 40.25 55.625 40.0937 53.2656 40.6718C53.2656 40.6718 55.2188 39.6093 57.2813 39.1406C57.8438 39.0156 58.4063 38.9375 58.9688 38.9375H59.3125C69.7344 39.1562 78.2031 48.6562 78.2031 60.6093C78.2031 68.75 74.1875 75.75 68.3125 79.4531V79.4531Z" fill="#EFA33F"/>
<path d="M59.3125 38.9375C59.1875 38.9375 59.0781 38.9375 58.9687 38.9375C58.6875 38.9375 58.4062 38.9531 58.125 39C67 40.875 73.7656 49.625 73.7656 60.2968C73.7656 68.4375 69.7344 75.4531 63.875 79.1562C62.75 79.8593 61.5625 80.4531 60.3125 80.8906C59.9375 81.4375 59.4531 81.9062 58.8906 82.2656C62.2344 82.2343 65.4844 81.2656 68.2969 79.4687C74.1719 75.7656 78.2031 68.7656 78.2031 60.6093C78.2031 48.6562 69.7344 39.1406 59.3125 38.9375V38.9375Z" fill="#DD9136"/>
<path d="M21.9531 60.5938C21.9531 48.6406 30.4219 39.1406 40.8437 38.9219C39.6719 38.1406 38.4219 37.4844 37.125 36.9531C35.2344 36.1875 33.2187 35.7813 31.1875 35.7656C20.6094 35.7656 12.0312 45.5469 12.0312 57.625C12.0312 69.3281 21.8125 78.8906 32.0469 79.4688C26.1562 75.5938 21.9531 68.5625 21.9531 60.5938V60.5938Z" fill="#EFA33F"/>
<path d="M16.5938 57.7813C16.5938 46.4062 24.2031 37.0625 33.9219 36.0156C33.0156 35.8438 32.0938 35.7656 31.1875 35.7656C20.6094 35.7656 12.0312 45.5469 12.0312 57.625C12.0312 69.3281 21.8125 78.8906 32.0469 79.4688C31.3906 79.0313 30.7656 78.5781 30.1562 78.0781C22.6094 74.8281 16.5938 66.9688 16.5938 57.7813V57.7813Z" fill="#DB8A2A"/>
<path d="M41.8125 82.5625C41.1406 82.375 39.9375 81.1406 39.5937 80.5156C37.5 76.75 36.9375 74.3281 36.2969 71.8594C35.5 68.6875 35.0937 65.4375 35.1094 62.1562C35.1094 51.6406 37.6562 44.8281 39.9219 40.2031C40.1562 39.7031 40.5156 39.2656 40.9531 38.9219C40.8594 38.9219 40.7812 38.9219 40.6875 38.9219C30.2656 39.1406 21.7969 48.6562 21.7969 60.5937C21.7969 68.5625 26 75.5937 31.8906 79.4687C34.9219 81.4687 38.4219 82.625 42.0156 82.6094C41.9531 82.5937 41.875 82.5781 41.8125 82.5625V82.5625Z" fill="#FBB040"/>
<path d="M41.8125 82.5781C41.4844 82.4843 41.0156 82.125 40.5937 81.7344C38.9531 81.1875 37.3906 80.4375 35.9375 79.4843C30.0469 75.6093 25.8437 68.5781 25.8437 60.6093C25.8437 50.4375 32 42.0156 40.2656 39.625C40.4531 39.375 40.6875 39.1406 40.9375 38.9375C40.8437 38.9375 40.7656 38.9375 40.6719 38.9375C30.25 39.1562 21.7812 48.6562 21.7812 60.6093C21.7812 68.5781 25.9844 75.6093 31.875 79.4843C34.9219 81.4843 38.4062 82.6406 42.0156 82.6406C41.9531 82.6094 41.8906 82.5937 41.8125 82.5781Z" fill="#E5952C"/>
<path d="M46.4843 38.1094C44.5468 37.6563 42.2656 37.7656 40.7968 38.9219C40.3593 39.2656 40 39.7031 39.7968 40.2031C37.5312 44.8281 34.9843 51.6406 34.9843 62.1562C34.9531 65.4219 35.3593 68.6875 36.1718 71.8594C36.7968 74.3281 37.375 76.75 39.4687 80.5156C39.8125 81.125 41 82.3594 41.6875 82.5625C41.75 82.5781 41.8125 82.5937 41.8906 82.6094C43.3593 82.8594 47.625 82.25 48.4218 81.9531C48.7656 81.8281 49.0625 81.5937 49.2656 81.2969L49.9687 42.7969L49.9843 40.8125C50 39.625 48.4375 38.5781 46.4843 38.1094V38.1094Z" fill="#EFA33F"/>
<path d="M42.5624 80.5156C40.4687 76.75 39.8906 74.3281 39.2656 71.8594C38.4531 68.6875 38.0468 65.4219 38.0781 62.1562C38.0781 51.6406 40.6249 44.8281 42.8906 40.2031C43.1406 39.7031 43.4843 39.2656 43.9218 38.9219C44.5312 38.4687 45.2499 38.1562 45.9999 38.0156C44.1874 37.6875 42.1406 37.875 40.7968 38.9219C40.3593 39.2656 39.9999 39.7031 39.7656 40.2031C37.4999 44.8281 34.9531 51.6406 34.9531 62.1562C34.9374 65.4375 35.3437 68.6875 36.1406 71.8594C36.7812 74.3281 37.3437 76.75 39.4374 80.5156C39.7812 81.1406 40.9843 82.375 41.6562 82.5625C41.7187 82.5781 41.7968 82.5938 41.8593 82.6094C42.4843 82.7031 43.5937 82.6563 44.7343 82.5469C44.0624 82.3281 42.9062 81.125 42.5624 80.5156V80.5156Z" fill="#DD9136"/>
<path d="M68.8125 35.7656C79.3906 35.7656 87.9687 45.5625 87.9687 57.625C87.9687 69.25 78.3125 78.7656 68.1562 79.4531C74.0312 75.75 78.0625 68.75 78.0625 60.5938C78.0625 48.6563 69.5937 39.1406 59.1719 38.9219C60.5937 37.9688 62.125 37.2031 63.7344 36.625C65.3594 36.0625 67.0781 35.7656 68.8125 35.7656V35.7656Z" fill="#FBB040"/>
<path d="M69.375 35.7969C67.6406 35.7656 65.9219 36.0312 64.2656 36.5781C64.1562 36.6094 64.0469 36.6562 63.9375 36.6875C64.6406 36.5937 65.3437 36.5625 66.0469 36.5781C76.625 36.7812 85.0156 46.75 84.7656 58.8125C84.5781 68.5156 77.6875 76.6094 69.5 79.3125C79.0625 77.9687 87.875 69.0312 88.0937 58.0312C88.3437 45.9687 79.9531 36 69.375 35.7969V35.7969Z" fill="#E5952C"/>
<path d="M60.25 42.1875C58.7187 40.25 55.75 40.0937 53.4062 40.6719C51.6094 41.125 50.1719 41.9844 50.0313 42.8125H49.9531L49.25 81.3125C51.25 83.5 57.0312 82.9687 58.3437 82.5781C58.5937 82.5 58.8281 82.3906 59.0469 82.25C63.3594 79.6094 65.0625 65.7344 65.0625 62.1562C65.0625 51.6406 63.4375 46.2344 60.25 42.1875V42.1875Z" fill="#FBB040"/>
<path d="M60.25 42.1875C58.8125 40.3594 56.1094 40.125 53.8438 40.5781C54.8906 40.8281 55.8437 41.3438 56.5156 42.1875C59.7031 46.2344 61.3281 51.6406 61.3281 62.1562C61.3281 65.7344 59.625 79.6094 55.3125 82.25C55.0937 82.3906 54.8594 82.5 54.6094 82.5781C54.125 82.7031 53.6094 82.7969 53.1094 82.8281C55.2812 83.0781 57.5937 82.7969 58.3594 82.5781C58.6094 82.5 58.8437 82.3906 59.0625 82.25C63.375 79.6094 65.0781 65.7344 65.0781 62.1562C65.0625 51.6406 63.4219 46.2344 60.25 42.1875V42.1875Z" fill="#E5952C"/>
</svg>
