<svg width="150" height="150" viewBox="0 0 150 150" fill="none" xmlns="http://www.w3.org/2000/svg">
<g clip-path="url(#clip0)">
<path d="M72.4028 30.7232C72.4028 30.7232 74.3076 15.3118 81.7536 9.25116C89.1995 3.19051 94.3944 2.67102 94.3944 2.67102L102.706 11.5023C102.706 11.5023 81.2341 18.0824 79.8488 37.996C78.6367 58.0828 72.4028 30.7232 72.4028 30.7232Z" fill="#68AA00"/>
<path d="M146.862 62.7582C153.269 82.3254 149.287 105.702 136.126 123.711C131.105 130.811 125.044 136.352 118.637 139.988C112.23 143.798 105.477 145.703 98.7234 145.703C95.2601 145.703 91.6237 145.183 88.1605 143.971L86.9484 143.625L85.9094 144.317C79.6756 148.473 71.1907 148.3 64.9568 143.971L63.9179 143.278L62.7057 143.625C58.8962 145.01 55.0866 145.703 51.1039 145.703C37.5973 145.703 23.9175 137.564 13.701 123.538C0.713871 105.529 -3.44201 82.1523 2.96497 62.585C11.1036 38.6887 29.2855 33.4938 43.1385 33.4938C54.0477 33.4938 62.7057 36.6107 62.8789 36.6107L64.091 37.1302L65.13 36.4376C71.3638 32.1085 79.8487 31.9354 86.0826 36.0913L87.1215 36.7839L88.1605 36.4376C90.9311 35.5718 98.0307 33.667 106.689 33.667C120.715 33.4938 138.897 38.6887 146.862 62.7582Z" fill="#F27503"/>
<path d="M86.0827 144.49L87.1216 143.798C86.6021 144.144 86.2558 144.317 85.7363 144.664C85.9095 144.664 86.0827 144.49 86.0827 144.49Z" fill="#D35C02"/>
<path d="M87.1216 143.798L88.3337 144.144C91.7969 145.183 95.2602 145.876 98.8966 145.876C105.65 145.876 112.576 143.798 118.81 140.161C125.217 136.352 131.105 130.811 136.299 123.884C149.287 105.875 153.442 82.4985 147.036 62.9313C138.897 38.6886 120.715 33.4938 106.862 33.4938C98.2039 33.4938 90.9311 35.3986 88.3337 36.2644L87.1216 36.6107C87.1216 36.6107 107.555 43.8835 117.598 59.2949C129.373 77.3037 136.126 123.711 87.1216 143.798Z" fill="#D35C02"/>
<path d="M111.364 114.707L105.477 108.473L86.2557 121.114L75.0002 111.763L63.7447 121.114L44.5238 108.473L38.6363 114.707L19.2422 85.0961L38.6363 97.3905L44.5238 91.1567L63.7447 103.798L75.0002 94.4468L86.2557 103.798L105.477 91.1567L111.364 97.3905L130.758 85.0961L111.364 114.707Z" fill="#231F20"/>
<path d="M102.879 84.0571C107.757 84.0571 111.71 77.8549 111.71 70.2041C111.71 62.5534 107.757 56.3512 102.879 56.3512C98.0019 56.3512 94.048 62.5534 94.048 70.2041C94.048 77.8549 98.0019 84.0571 102.879 84.0571Z" fill="#231F20"/>
<path d="M64.0911 80.0743C64.0911 80.0743 56.472 66.7409 48.8528 66.7409C41.2337 66.7409 33.6146 80.0743 33.6146 80.0743C33.6146 67.0872 40.3679 57.0438 48.8528 57.0438C57.3378 57.0438 64.0911 67.0872 64.0911 80.0743Z" fill="#231F20"/>
</g>
<defs>
<clipPath id="clip0">
<rect width="150" height="150" fill="white"/>
</clipPath>
</defs>
</svg>
