<svg width="150" height="150" viewBox="0 0 150 150" fill="none" xmlns="http://www.w3.org/2000/svg">
<g clip-path="url(#clip0)">
<path d="M72.4022 30.7237C72.4022 30.7237 74.307 15.3123 81.753 9.25165C89.1989 3.19099 94.3938 2.67151 94.3938 2.67151L102.706 11.5028C102.706 11.5028 81.2335 18.0829 79.8482 37.9965C78.636 58.0832 72.4022 30.7237 72.4022 30.7237Z" fill="#68AA00"/>
<path d="M146.862 62.7576C153.269 82.3249 149.287 105.702 136.126 123.711C131.105 130.81 125.044 136.351 118.637 139.988C112.23 143.797 105.477 145.702 98.7235 145.702C95.2603 145.702 91.6239 145.183 88.1606 143.97L86.9485 143.624L85.9095 144.317C79.6757 148.473 71.1908 148.299 64.957 143.97L63.918 143.278L62.7059 143.624C58.8963 145.009 55.0868 145.702 51.104 145.702C37.5974 145.702 23.9177 137.563 13.7011 123.537C0.713993 105.529 -3.44189 82.1517 2.9651 62.5844C11.1037 38.6881 29.2857 33.4933 43.1386 33.4933C54.0478 33.4933 62.7059 36.6102 62.879 36.6102L64.0912 36.9565L65.1301 36.2639C71.364 31.9348 79.8489 31.7617 86.0827 35.9175L87.1217 36.6102L88.1606 36.2639C90.9312 35.3981 98.0309 33.4933 106.689 33.4933C120.715 33.4933 138.897 38.6881 146.862 62.7576Z" fill="#F27503"/>
<path d="M86.0823 144.487L87.1212 143.795C86.6018 144.141 86.2554 144.314 85.736 144.66C85.9091 144.66 86.0823 144.487 86.0823 144.487Z" fill="#D35C02"/>
<path d="M87.1212 143.796L88.3333 144.142C91.7965 145.181 95.2598 145.874 98.8962 145.874C105.65 145.874 112.576 143.796 118.81 140.159C125.217 136.35 131.104 130.809 136.299 123.882C149.286 105.873 153.442 82.4966 147.035 62.9293C138.897 38.6867 120.715 33.4918 106.862 33.4918C98.2035 33.4918 90.9307 35.3966 88.3333 36.2624L87.1212 36.6087C87.1212 36.6087 107.554 43.8815 117.598 59.2929C129.373 77.3017 136.126 123.709 87.1212 143.796Z" fill="#D35C02"/>
<path d="M111.364 114.711L105.476 108.477L86.2555 121.118L75 111.767L63.7446 121.118L44.5236 108.477L38.463 114.711L19.2421 85.1001L38.463 97.3946L44.5236 91.1608L63.7446 103.802L75 94.4509L86.2555 103.802L105.476 91.1608L111.364 97.3946L130.758 85.1001L111.364 114.711Z" fill="#231F20"/>
<path d="M65.9955 80.596C65.9955 80.596 58.0301 66.743 50.0647 66.743C42.0993 66.743 34.1339 80.596 34.1339 80.596C34.1339 67.0893 41.0603 56.5265 50.0647 56.5265C59.069 56.5265 65.9955 67.0893 65.9955 80.596Z" fill="#231F20"/>
<path d="M117.598 80.596C117.598 80.596 109.632 66.743 101.667 66.743C93.7014 66.743 85.736 80.596 85.736 80.596C85.736 67.0893 92.6624 56.5265 101.667 56.5265C110.671 56.5265 117.598 67.0893 117.598 80.596Z" fill="#231F20"/>
</g>
<defs>
<clipPath id="clip0">
<rect width="150" height="150" fill="white"/>
</clipPath>
</defs>
</svg>
