<svg width="512" height="512" viewBox="0 0 512 512" fill="none" xmlns="http://www.w3.org/2000/svg">
<g id="scarecrow 1" clip-path="url(#clip0)">
<path id="Vector" d="M321.456 330.986L313.256 307.454H281.178V204.2C264.899 210.029 247.101 210.029 230.822 204.2V307.452H198.752L190.552 330.984C190.359 331.536 190.283 332.123 190.331 332.707C190.378 333.29 190.547 333.857 190.828 334.371C191.108 334.885 191.493 335.334 191.958 335.69C192.423 336.045 192.957 336.3 193.526 336.436C195.77 336.964 198.02 337.478 200.262 337.976C236.978 346.14 275.038 346.14 311.754 337.976C313.996 337.478 316.246 336.964 318.49 336.436C319.058 336.299 319.591 336.044 320.055 335.688C320.519 335.332 320.903 334.883 321.182 334.369C321.462 333.856 321.63 333.289 321.678 332.707C321.725 332.124 321.649 331.538 321.456 330.986Z" fill="#FCDD86"/>
<path id="Vector_2" d="M256 344.1V418.988H284.4C284.4 418.988 306.274 370.7 307.87 338.788C290.805 342.314 273.425 344.094 256 344.1Z" fill="#F5C84C"/>
<path id="Vector_3" d="M284.4 418.988C284.4 418.988 286.542 440.416 297.256 457.56L282.256 451.132L277.97 463.988L267.256 453.274L256 463.988V418.988H284.4Z" fill="#F5C84C"/>
<path id="Vector_4" d="M420.466 191.432H387.252V212.86H420.466C423.308 212.86 426.033 211.731 428.042 209.722C430.051 207.713 431.18 204.988 431.18 202.146C431.18 199.304 430.051 196.579 428.042 194.57C426.033 192.561 423.308 191.432 420.466 191.432Z" fill="#B77035"/>
<path id="Vector_5" d="M230.822 289.24V307.454H281.178V289.24H230.822Z" fill="#EDF4FC"/>
<path id="Vector_6" d="M227.6 418.988H256V344.1C238.576 344.093 221.199 342.312 204.136 338.786C205.732 370.7 227.6 418.988 227.6 418.988Z" fill="#F5C84C"/>
<path id="Vector_7" d="M227.6 418.988C227.6 418.988 225.458 440.416 214.744 457.56L229.744 451.132L234.03 463.988L244.744 453.274L256 463.988V418.988H227.6Z" fill="#F5C84C"/>
<path id="Vector_8" d="M91.534 191.432H124.748V212.86H91.534C88.6925 212.86 85.9673 211.731 83.9581 209.722C81.9488 207.713 80.82 204.988 80.82 202.146C80.82 199.304 81.9488 196.579 83.9581 194.57C85.9673 192.561 88.6925 191.432 91.534 191.432Z" fill="#B77035"/>
<path id="Vector_9" d="M256 463.988L245.286 453.788V502.128C245.286 503.421 245.8 504.661 246.714 505.576C247.629 506.49 248.869 507.004 250.162 507.004H261.838C263.131 507.004 264.371 506.49 265.286 505.576C266.2 504.661 266.714 503.421 266.714 502.128V453.788L256 463.988Z" fill="#B77035"/>
<path id="Vector_10" d="M302.776 191.432C296.45 197.018 289.12 201.351 281.176 204.202V307.454H333.68L323.85 235.468C323.751 234.617 323.86 233.755 324.167 232.955C324.475 232.155 324.972 231.442 325.615 230.877C326.259 230.311 327.03 229.91 327.863 229.709C328.696 229.507 329.565 229.51 330.396 229.718L378.984 241.864C379.965 242.11 380.989 242.128 381.979 241.919C382.968 241.709 383.897 241.277 384.694 240.654C385.491 240.032 386.136 239.236 386.579 238.327C387.022 237.418 387.253 236.419 387.252 235.408V191.432H302.776Z" fill="#5B5D60"/>
<path id="Vector_11" d="M209.224 191.432H124.748V235.4C124.748 236.411 124.978 237.41 125.421 238.319C125.864 239.228 126.509 240.024 127.306 240.646C128.103 241.269 129.032 241.701 130.021 241.911C131.011 242.12 132.035 242.102 133.016 241.856L181.6 229.718C182.431 229.51 183.3 229.507 184.133 229.709C184.966 229.91 185.737 230.311 186.381 230.877C187.024 231.442 187.521 232.155 187.829 232.955C188.136 233.755 188.245 234.617 188.146 235.468L178.32 307.454H230.822V204.2C222.879 201.35 215.55 197.017 209.224 191.432Z" fill="#5B5D60"/>
<path id="BlueStar" d="M373.882 336.974H369.222V332.314C369.193 330.659 368.514 329.081 367.333 327.921C366.152 326.76 364.563 326.11 362.907 326.11C361.251 326.11 359.662 326.76 358.481 327.921C357.3 329.081 356.621 330.659 356.592 332.314V336.974H351.934C350.279 337.003 348.701 337.682 347.541 338.863C346.38 340.044 345.73 341.633 345.73 343.289C345.73 344.945 346.38 346.534 347.541 347.715C348.701 348.896 350.279 349.575 351.934 349.604H356.6V354.264C356.629 355.919 357.308 357.497 358.489 358.657C359.67 359.818 361.259 360.468 362.915 360.468C364.571 360.468 366.16 359.818 367.341 358.657C368.522 357.497 369.201 355.919 369.23 354.264V349.6H373.89C375.545 349.571 377.123 348.892 378.283 347.711C379.444 346.53 380.094 344.941 380.094 343.285C380.094 341.629 379.444 340.04 378.283 338.859C377.123 337.678 375.545 336.999 373.89 336.97L373.882 336.974Z" fill="#70D6F9"/>
<path id="Star" d="M161.41 75.308C157.039 74.5162 153.007 72.4316 149.834 69.3236C146.66 66.2156 144.492 62.2272 143.61 57.874C143.595 57.78 143.547 57.6945 143.475 57.6327C143.402 57.571 143.31 57.537 143.215 57.537C143.12 57.537 143.028 57.571 142.955 57.6327C142.883 57.6945 142.835 57.78 142.82 57.874C141.938 62.2272 139.77 66.2156 136.596 69.3236C133.423 72.4316 129.391 74.5162 125.02 75.308C124.935 75.331 124.86 75.3813 124.807 75.4511C124.754 75.5208 124.725 75.6062 124.725 75.694C124.725 75.7818 124.754 75.8672 124.807 75.9369C124.86 76.0067 124.935 76.057 125.02 76.08C129.391 76.8718 133.423 78.9564 136.596 82.0644C139.77 85.1724 141.938 89.1608 142.82 93.514C142.835 93.608 142.883 93.6935 142.955 93.7553C143.028 93.817 143.12 93.851 143.215 93.851C143.31 93.851 143.402 93.817 143.475 93.7553C143.547 93.6935 143.595 93.608 143.61 93.514C144.492 89.1608 146.66 85.1724 149.834 82.0644C153.007 78.9564 157.039 76.8718 161.41 76.08C161.495 76.057 161.57 76.0067 161.623 75.9369C161.676 75.8672 161.705 75.7818 161.705 75.694C161.705 75.6062 161.676 75.5208 161.623 75.4511C161.57 75.3813 161.495 75.331 161.41 75.308Z" fill="#F5C84C"/>
<path id="BlueCirle" d="M179.324 47.742C183.054 47.742 186.078 44.7181 186.078 40.988C186.078 37.2579 183.054 34.234 179.324 34.234C175.594 34.234 172.57 37.2579 172.57 40.988C172.57 44.7181 175.594 47.742 179.324 47.742Z" fill="#70D6F9"/>
<path id="RedCircle" d="M333.324 401.742C337.054 401.742 340.078 398.718 340.078 394.988C340.078 391.258 337.054 388.234 333.324 388.234C329.594 388.234 326.57 391.258 326.57 394.988C326.57 398.718 329.594 401.742 333.324 401.742Z" fill="#EF4460"/>
<path id="YellowCircle" d="M363.324 153.742C367.054 153.742 370.078 150.718 370.078 146.988C370.078 143.258 367.054 140.234 363.324 140.234C359.594 140.234 356.57 143.258 356.57 146.988C356.57 150.718 359.594 153.742 363.324 153.742Z" fill="#F5C84C"/>
<path id="GreenCircle" d="M143.324 281.742C147.054 281.742 150.078 278.718 150.078 274.988C150.078 271.258 147.054 268.234 143.324 268.234C139.594 268.234 136.57 271.258 136.57 274.988C136.57 278.718 139.594 281.742 143.324 281.742Z" fill="#87D147"/>
<path id="Vector_12" d="M284.4 423.988H256C254.674 423.988 253.402 423.461 252.464 422.524C251.527 421.586 251 420.314 251 418.988V344.1C251 342.774 251.527 341.502 252.464 340.564C253.402 339.627 254.674 339.1 256 339.1C273.084 339.089 290.123 337.342 306.854 333.888C307.601 333.734 308.374 333.754 309.113 333.945C309.852 334.136 310.537 334.494 311.116 334.991C311.695 335.488 312.153 336.111 312.454 336.812C312.755 337.513 312.892 338.274 312.854 339.036C311.228 371.524 289.854 419.036 288.944 421.05C288.548 421.924 287.91 422.666 287.104 423.187C286.298 423.708 285.359 423.986 284.4 423.988ZM261 413.988H281.124C285.414 404.004 299.136 370.612 302.302 344.95C288.665 347.407 274.854 348.778 261 349.052V413.988Z" fill="black"/>
<path id="Vector_13" d="M256 468.988C254.674 468.988 253.402 468.461 252.464 467.524C251.527 466.586 251 465.314 251 463.988V418.988C251 417.662 251.527 416.39 252.464 415.452C253.402 414.515 254.674 413.988 256 413.988H284.4C285.639 413.988 286.834 414.448 287.753 415.28C288.672 416.111 289.25 417.253 289.374 418.486C289.394 418.686 291.558 439.008 301.498 454.91C302.063 455.813 302.324 456.873 302.244 457.935C302.165 458.997 301.748 460.006 301.055 460.814C300.362 461.623 299.429 462.189 298.391 462.431C297.354 462.672 296.267 462.576 295.288 462.156L285.288 457.868L282.72 465.57C282.45 466.378 281.979 467.104 281.35 467.679C280.72 468.254 279.955 468.658 279.126 468.854C278.296 469.05 277.431 469.03 276.611 468.798C275.791 468.565 275.045 468.126 274.442 467.524L267.178 460.26L259.46 467.61C258.527 468.498 257.288 468.991 256 468.988ZM267.25 448.274C267.907 448.274 268.557 448.403 269.164 448.654C269.77 448.906 270.322 449.274 270.786 449.738L275.786 454.738L277.512 449.556C277.731 448.9 278.083 448.296 278.547 447.783C279.011 447.27 279.577 446.859 280.208 446.576C280.839 446.293 281.522 446.143 282.213 446.137C282.905 446.132 283.59 446.269 284.226 446.542L286.64 447.576C283.609 439.973 281.401 432.067 280.056 423.994H261V452.328L263.8 449.66C264.728 448.771 265.964 448.274 267.25 448.274Z" fill="black"/>
<path id="Vector_14" d="M420.466 217.86H387.252C385.926 217.86 384.654 217.333 383.716 216.396C382.779 215.458 382.252 214.186 382.252 212.86V191.432C382.252 190.106 382.779 188.834 383.716 187.896C384.654 186.959 385.926 186.432 387.252 186.432H420.466C422.53 186.432 424.573 186.838 426.479 187.628C428.386 188.418 430.118 189.575 431.577 191.035C433.037 192.494 434.194 194.226 434.984 196.133C435.774 198.039 436.18 200.082 436.18 202.146C436.18 204.21 435.774 206.253 434.984 208.159C434.194 210.066 433.037 211.798 431.577 213.257C430.118 214.717 428.386 215.874 426.479 216.664C424.573 217.454 422.53 217.86 420.466 217.86ZM392.252 207.86H420.466C421.981 207.86 423.435 207.258 424.506 206.186C425.578 205.115 426.18 203.661 426.18 202.146C426.18 200.631 425.578 199.177 424.506 198.106C423.435 197.034 421.981 196.432 420.466 196.432H392.252V207.86Z" fill="black"/>
<path id="Vector_15" d="M281.178 312.456H230.822C229.496 312.456 228.224 311.929 227.286 310.992C226.349 310.054 225.822 308.782 225.822 307.456V289.24C225.822 287.914 226.349 286.642 227.286 285.704C228.224 284.767 229.496 284.24 230.822 284.24H281.178C282.504 284.24 283.776 284.767 284.714 285.704C285.651 286.642 286.178 287.914 286.178 289.24V307.456C286.178 308.782 285.651 310.054 284.714 310.992C283.776 311.929 282.504 312.456 281.178 312.456ZM235.822 302.456H276.178V294.24H235.822V302.456Z" fill="black"/>
<path id="Vector_16" d="M256 423.988H227.6C226.639 423.988 225.698 423.711 224.89 423.19C224.083 422.668 223.442 421.926 223.046 421.05C222.136 419.05 200.762 371.524 199.136 339.036C199.098 338.274 199.235 337.513 199.536 336.812C199.837 336.111 200.295 335.488 200.874 334.991C201.453 334.494 202.138 334.136 202.877 333.945C203.616 333.754 204.389 333.734 205.136 333.888C221.87 337.343 238.913 339.089 256 339.1C257.326 339.1 258.598 339.627 259.536 340.564C260.473 341.502 261 342.774 261 344.1V418.988C261 420.314 260.473 421.586 259.536 422.524C258.598 423.461 257.326 423.988 256 423.988ZM230.876 413.988H251V349.052C237.146 348.777 223.335 347.406 209.698 344.95C212.862 370.628 226.584 404 230.876 413.988Z" fill="black"/>
<path id="Vector_17" d="M256 468.988C254.716 468.988 253.482 468.495 252.552 467.61L244.834 460.26L237.57 467.524C236.967 468.126 236.221 468.565 235.401 468.798C234.581 469.03 233.716 469.05 232.886 468.854C232.057 468.658 231.292 468.254 230.662 467.679C230.033 467.104 229.562 466.378 229.292 465.57L226.724 457.868L216.724 462.156C215.746 462.572 214.66 462.665 213.625 462.423C212.59 462.18 211.659 461.613 210.968 460.806C210.277 459.998 209.861 458.991 209.781 457.93C209.702 456.87 209.962 455.812 210.524 454.91C220.464 439.008 222.628 418.69 222.648 418.486C222.772 417.253 223.35 416.111 224.269 415.28C225.188 414.448 226.383 413.988 227.622 413.988H256C257.326 413.988 258.598 414.515 259.536 415.452C260.473 416.39 261 417.662 261 418.988V463.988C261 465.314 260.473 466.586 259.536 467.524C258.598 468.461 257.326 468.988 256 468.988ZM229.75 446.13C230.8 446.13 231.823 446.46 232.674 447.074C233.526 447.688 234.162 448.554 234.494 449.55L236.22 454.732L241.22 449.732C242.143 448.809 243.39 448.284 244.695 448.268C246 448.253 247.259 448.748 248.204 449.648L251.004 452.316V423.988H231.954C230.609 432.061 228.401 439.967 225.37 447.57L227.784 446.536C228.405 446.269 229.074 446.131 229.75 446.13Z" fill="black"/>
<path id="Vector_18" d="M124.748 217.86H91.534C89.4704 217.86 87.427 217.454 85.5205 216.664C83.614 215.874 81.8817 214.717 80.4225 213.257C78.9634 211.798 77.8059 210.066 77.0162 208.159C76.2265 206.253 75.82 204.21 75.82 202.146C75.82 200.082 76.2265 198.039 77.0162 196.133C77.8059 194.226 78.9634 192.494 80.4225 191.035C81.8817 189.575 83.614 188.418 85.5205 187.628C87.427 186.838 89.4704 186.432 91.534 186.432H124.748C126.074 186.432 127.346 186.959 128.284 187.896C129.221 188.834 129.748 190.106 129.748 191.432V212.86C129.748 214.186 129.221 215.458 128.284 216.396C127.346 217.333 126.074 217.86 124.748 217.86ZM91.534 196.432C90.0186 196.432 88.5652 197.034 87.4936 198.106C86.422 199.177 85.82 200.631 85.82 202.146C85.82 203.661 86.422 205.115 87.4936 206.186C88.5652 207.258 90.0186 207.86 91.534 207.86H119.748V196.432H91.534Z" fill="black"/>
<path id="Vector_19" d="M281.312 346.85C280.135 346.848 278.996 346.431 278.096 345.673C277.196 344.914 276.593 343.862 276.392 342.702L273.038 323.302C272.819 321.998 273.125 320.66 273.889 319.581C274.654 318.502 275.815 317.77 277.118 317.545C278.421 317.32 279.76 317.621 280.842 318.38C281.924 319.14 282.661 320.298 282.892 321.6L286.246 341C286.37 341.719 286.336 342.456 286.145 343.16C285.954 343.864 285.612 344.517 285.142 345.075C284.672 345.633 284.085 346.081 283.424 346.388C282.762 346.695 282.041 346.853 281.312 346.852V346.85Z" fill="black"/>
<path id="Vector_20" d="M299.936 341.358C298.758 341.357 297.619 340.94 296.718 340.181C295.818 339.421 295.214 338.369 295.014 337.208L292.986 325.476C292.767 324.172 293.073 322.834 293.837 321.755C294.602 320.676 295.763 319.944 297.066 319.719C298.369 319.494 299.708 319.795 300.79 320.554C301.872 321.314 302.609 322.472 302.84 323.774L304.868 335.506C304.992 336.225 304.958 336.961 304.767 337.665C304.577 338.369 304.234 339.023 303.764 339.58C303.294 340.138 302.708 340.586 302.047 340.893C301.386 341.2 300.665 341.359 299.936 341.358Z" fill="black"/>
<path id="Vector_21" d="M261.838 512H250.162C247.544 511.997 245.033 510.956 243.182 509.104C241.33 507.253 240.289 504.742 240.286 502.124V453.784C240.286 452.806 240.573 451.849 241.112 451.032C241.651 450.215 242.417 449.574 243.317 449.189C244.216 448.804 245.209 448.691 246.172 448.864C247.134 449.037 248.025 449.489 248.734 450.164L256 457.084L263.266 450.164C263.975 449.489 264.865 449.037 265.828 448.864C266.791 448.691 267.784 448.804 268.683 449.189C269.583 449.574 270.349 450.215 270.888 451.032C271.427 451.849 271.714 452.806 271.714 453.784V502.124C271.711 504.742 270.67 507.253 268.818 509.104C266.967 510.956 264.456 511.997 261.838 512ZM250.286 465.45V502.124L261.838 502L261.744 465.422L259.448 467.61C258.518 468.495 257.284 468.989 256 468.989C254.716 468.989 253.482 468.495 252.552 467.61L250.286 465.45Z" fill="black"/>
<path id="Vector_22" d="M292.428 423.988H219.572C218.246 423.988 216.974 423.461 216.036 422.524C215.099 421.586 214.572 420.314 214.572 418.988C214.572 417.662 215.099 416.39 216.036 415.452C216.974 414.515 218.246 413.988 219.572 413.988H292.428C293.754 413.988 295.026 414.515 295.964 415.452C296.901 416.39 297.428 417.662 297.428 418.988C297.428 420.314 296.901 421.586 295.964 422.524C295.026 423.461 293.754 423.988 292.428 423.988Z" fill="black"/>
<path id="Vector_23" d="M333.68 312.456H281.178C279.852 312.456 278.58 311.929 277.642 310.992C276.705 310.054 276.178 308.782 276.178 307.456V204.2C276.178 203.173 276.494 202.17 277.083 201.329C277.672 200.488 278.506 199.848 279.472 199.498C286.822 196.873 293.603 192.868 299.45 187.698C300.366 186.882 301.55 186.432 302.776 186.432H387.252C388.578 186.432 389.85 186.959 390.788 187.896C391.725 188.834 392.252 190.106 392.252 191.432V235.41C392.252 237.181 391.848 238.929 391.072 240.521C390.295 242.113 389.166 243.507 387.77 244.596C386.373 245.686 384.747 246.444 383.015 246.811C381.282 247.178 379.488 247.146 377.77 246.716L329.182 234.57C329.136 234.554 329.087 234.552 329.04 234.563C328.993 234.574 328.95 234.599 328.916 234.634C328.877 234.664 328.847 234.703 328.829 234.749C328.812 234.794 328.807 234.844 328.816 234.892L338.634 306.778C338.731 307.485 338.675 308.205 338.47 308.889C338.266 309.573 337.917 310.205 337.448 310.743C336.978 311.281 336.399 311.712 335.749 312.008C335.1 312.303 334.394 312.456 333.68 312.456ZM286.178 302.456H327.95L318.896 236.146C318.686 234.485 318.885 232.799 319.474 231.232C320.063 229.665 321.026 228.266 322.278 227.155C323.53 226.044 325.034 225.255 326.66 224.857C328.286 224.458 329.984 224.462 331.608 224.868L380.196 237.014C380.44 237.075 380.694 237.079 380.939 237.027C381.185 236.975 381.415 236.868 381.613 236.714C381.811 236.56 381.971 236.363 382.082 236.138C382.193 235.912 382.251 235.665 382.252 235.414V196.432H304.638C299.092 201.081 292.866 204.854 286.178 207.618V302.456Z" fill="black"/>
<path id="Vector_24" d="M256 349.06C236.887 349.072 217.829 346.993 199.168 342.86C196.901 342.359 194.635 341.841 192.368 341.306C191.117 341.009 189.941 340.453 188.919 339.674C187.896 338.894 187.048 337.908 186.431 336.78C185.813 335.652 185.44 334.407 185.334 333.125C185.229 331.844 185.393 330.554 185.818 329.34L194.018 305.81C194.36 304.831 194.998 303.982 195.844 303.381C196.689 302.781 197.701 302.458 198.738 302.458H225.808V204.2C225.808 203.397 226.002 202.605 226.372 201.892C226.743 201.179 227.28 200.567 227.938 200.105C228.596 199.644 229.356 199.349 230.152 199.243C230.949 199.138 231.759 199.226 232.514 199.5C247.691 204.929 264.281 204.929 279.458 199.5C280.213 199.226 281.023 199.138 281.82 199.243C282.616 199.349 283.376 199.644 284.034 200.105C284.692 200.567 285.229 201.179 285.6 201.892C285.97 202.605 286.164 203.397 286.164 204.2V302.454H313.234C314.271 302.454 315.283 302.777 316.128 303.377C316.974 303.978 317.612 304.827 317.954 305.806L326.154 329.336C326.579 330.55 326.744 331.839 326.638 333.121C326.533 334.402 326.159 335.648 325.542 336.776C324.925 337.904 324.077 338.89 323.055 339.669C322.032 340.449 320.857 341.005 319.606 341.302C317.339 341.835 315.073 342.353 312.806 342.856C294.153 346.986 275.105 349.067 256 349.06ZM195.562 331.782C197.487 332.23 199.413 332.668 201.338 333.096C237.345 341.05 274.655 341.05 310.662 333.096C312.585 332.669 314.51 332.231 316.438 331.782L309.696 312.456H281.178C279.852 312.456 278.58 311.929 277.642 310.992C276.705 310.054 276.178 308.782 276.178 307.456V211C262.944 214.426 249.056 214.426 235.822 211V307.46C235.822 308.786 235.295 310.058 234.358 310.996C233.42 311.933 232.148 312.46 230.822 312.46H202.304L195.562 331.782Z" fill="black"/>
<path id="Vector_25" d="M230.822 312.456H178.32C177.606 312.456 176.9 312.303 176.251 312.008C175.601 311.712 175.022 311.281 174.552 310.743C174.083 310.205 173.734 309.573 173.53 308.889C173.325 308.205 173.269 307.485 173.366 306.778L183.2 234.8C183.2 234.832 183.212 234.75 183.088 234.642C183.054 234.607 183.011 234.582 182.964 234.571C182.917 234.56 182.868 234.562 182.822 234.578L134.234 246.724C132.516 247.154 130.722 247.186 128.989 246.819C127.257 246.452 125.631 245.694 124.234 244.604C122.838 243.515 121.709 242.121 120.932 240.529C120.156 238.937 119.752 237.189 119.752 235.418V191.432C119.752 190.106 120.279 188.834 121.216 187.896C122.154 186.959 123.426 186.432 124.752 186.432H209.228C210.454 186.432 211.638 186.882 212.554 187.698C218.401 192.868 225.182 196.873 232.532 199.498C233.498 199.848 234.332 200.488 234.921 201.329C235.51 202.17 235.826 203.173 235.826 204.2V307.454C235.826 308.111 235.697 308.762 235.446 309.369C235.194 309.976 234.826 310.528 234.361 310.992C233.896 311.457 233.344 311.825 232.737 312.076C232.13 312.328 231.479 312.457 230.822 312.456ZM184.05 302.456H225.822V207.618C219.134 204.854 212.908 201.081 207.362 196.432H129.748V235.41C129.749 235.661 129.807 235.908 129.918 236.134C130.029 236.359 130.189 236.556 130.387 236.71C130.585 236.864 130.815 236.971 131.061 237.023C131.306 237.075 131.561 237.071 131.804 237.01L180.4 224.868C182.016 224.464 183.705 224.458 185.324 224.851C186.942 225.243 188.441 226.023 189.693 227.122C190.944 228.221 191.91 229.607 192.508 231.161C193.106 232.716 193.318 234.392 193.126 236.046L184.05 302.456Z" fill="black"/>
<g id="head">
<path id="Vector_26" d="M332.266 118.928C303.826 96.572 294.744 76.14 294.744 76.14H217.256C217.256 76.14 208.174 96.572 179.734 118.928C179.374 119.202 179.121 119.594 179.018 120.034C178.915 120.475 178.969 120.938 179.171 121.344C179.373 121.749 179.71 122.071 180.123 122.255C180.537 122.438 181.002 122.472 181.438 122.35C230.21 108.707 281.79 108.707 330.562 122.35C330.998 122.472 331.463 122.438 331.877 122.255C332.29 122.071 332.627 121.749 332.829 121.344C333.031 120.938 333.085 120.475 332.982 120.034C332.879 119.594 332.626 119.202 332.266 118.928Z" fill="#FCDD86"/>
<path id="Vector_27" d="M308.5 17.858L312.786 5C233.5 5 217.256 76.14 217.256 76.14H294.744C294.744 44 327.786 20 327.786 20L308.5 17.858Z" fill="#FCDD86"/>
<path id="Vector_28" d="M256 112.118C238.68 112.139 221.4 113.766 204.38 116.978C195.639 126.474 190.743 138.882 190.642 151.788C190.642 183.15 219.904 208.574 256 208.574C292.096 208.574 321.358 183.15 321.358 151.788C321.257 138.882 316.361 126.474 307.62 116.978C290.6 113.766 273.32 112.139 256 112.118Z" fill="#FC8C48"/>
<path id="Vector_29" d="M284.946 129.72L268.666 146H301.226L284.946 129.72Z" fill="#5B5D60"/>
<path id="Vector_30" d="M227.054 129.72L210.774 146H243.334L227.054 129.72Z" fill="#5B5D60"/>
<path id="Vector_31" d="M217.256 76.14H294.744C294.769 71.0924 295.552 66.0772 297.066 61.262L227.77 51.6C223.137 59.2489 219.598 67.5092 217.256 76.14Z" fill="#EF4460"/>
<path id="Vector_32" d="M256 184.816C255.225 184.816 254.46 184.634 253.768 184.286L245.8 180.298L236.2 184.41C235.352 184.774 234.42 184.896 233.508 184.763C232.595 184.63 231.737 184.247 231.028 183.656L220.978 175.282C219.984 174.426 219.366 173.213 219.258 171.906C219.15 170.599 219.56 169.301 220.399 168.293C221.239 167.285 222.441 166.648 223.747 166.518C225.052 166.388 226.356 166.777 227.378 167.6L235.074 174.012L243.982 170.194C244.649 169.909 245.37 169.773 246.096 169.795C246.821 169.816 247.533 169.995 248.182 170.318L258.23 175.342C259.238 175.845 260.047 176.674 260.525 177.694C261.003 178.713 261.123 179.865 260.865 180.962C260.607 182.058 259.986 183.035 259.103 183.735C258.22 184.435 257.127 184.815 256 184.816Z" fill="black"/>
<path id="Vector_33" d="M256 184.816C254.873 184.818 253.778 184.438 252.893 183.74C252.008 183.041 251.386 182.064 251.126 180.966C250.867 179.869 250.986 178.717 251.464 177.696C251.942 176.675 252.751 175.845 253.76 175.342L263.808 170.318C264.457 169.995 265.169 169.816 265.894 169.795C266.62 169.773 267.341 169.909 268.008 170.194L276.916 174.012L284.612 167.6C285.115 167.167 285.699 166.838 286.33 166.633C286.961 166.428 287.626 166.351 288.287 166.406C288.949 166.46 289.592 166.646 290.181 166.952C290.77 167.258 291.292 167.678 291.716 168.188C292.141 168.698 292.46 169.287 292.655 169.921C292.85 170.556 292.916 171.222 292.851 171.883C292.785 172.543 292.589 173.184 292.273 173.767C291.957 174.351 291.529 174.866 291.012 175.282L280.962 183.656C280.253 184.247 279.395 184.63 278.482 184.763C277.57 184.896 276.638 184.774 275.79 184.41L266.19 180.298L258.216 184.286C257.528 184.632 256.77 184.813 256 184.816Z" fill="black"/>
<path id="Vector_34" d="M256 164.288C254.674 164.288 253.402 163.761 252.464 162.824C251.527 161.886 251 160.614 251 159.288V157.146C251 155.82 251.527 154.548 252.464 153.61C253.402 152.673 254.674 152.146 256 152.146C257.326 152.146 258.598 152.673 259.536 153.61C260.473 154.548 261 155.82 261 157.146V159.288C261 160.614 260.473 161.886 259.536 162.824C258.598 163.761 257.326 164.288 256 164.288Z" fill="black"/>
<path id="Vector_35" d="M180.856 127.434C179.414 127.42 178.012 126.958 176.844 126.112C175.676 125.266 174.8 124.078 174.337 122.712C173.874 121.347 173.847 119.87 174.26 118.489C174.673 117.107 175.505 115.888 176.642 115C203.6 93.8 212.6 74.292 212.692 74.098C213.088 73.2189 213.729 72.4725 214.538 71.9479C215.347 71.4233 216.29 71.1429 217.254 71.14H294.746C295.713 71.1402 296.659 71.421 297.47 71.9481C298.281 72.4752 298.921 73.2262 299.314 74.11C299.396 74.292 308.396 93.804 335.356 114.998C336.628 115.988 337.516 117.39 337.868 118.963C338.219 120.536 338.013 122.182 337.284 123.619C336.554 125.057 335.348 126.196 333.871 126.841C332.394 127.486 330.738 127.598 329.188 127.156C281.313 113.77 230.683 113.77 182.808 127.156C182.173 127.339 181.516 127.432 180.856 127.434ZM220.312 81.14C217.236 86.74 209.166 99.54 193.03 114.234C234.474 104.746 277.526 104.746 318.97 114.234C302.834 99.548 294.77 86.738 291.688 81.14H220.312Z" fill="black"/>
<path id="Vector_36" d="M294.746 81.14H217.254C216.503 81.1399 215.762 80.9706 215.085 80.6447C214.408 80.3187 213.814 79.8446 213.346 79.2574C212.877 78.6702 212.547 77.9851 212.38 77.2529C212.213 76.5207 212.213 75.7602 212.38 75.028C212.552 74.278 230.464 -7.55357e-06 312.786 -7.55357e-06C313.578 -0.00014554 314.359 0.188056 315.065 0.549082C315.77 0.910107 316.38 1.43362 316.843 2.07646C317.306 2.71929 317.61 3.46305 317.73 4.24641C317.849 5.02977 317.781 5.83029 317.53 6.58199L315.2 13.572L328.338 15.03C329.341 15.1409 330.287 15.5526 331.052 16.2111C331.816 16.8696 332.364 17.7441 332.622 18.7196C332.88 19.695 332.838 20.7258 332.499 21.6765C332.161 22.6272 331.543 23.4532 330.726 24.046C330.42 24.268 299.746 46.982 299.746 76.14C299.746 77.4661 299.219 78.7378 298.282 79.6755C297.344 80.6132 296.072 81.14 294.746 81.14ZM223.974 71.14H289.974C291.974 50.046 306.156 33.022 315.82 23.702L307.942 22.828C307.2 22.7469 306.486 22.5007 305.851 22.1076C305.217 21.7144 304.679 21.1842 304.276 20.5559C303.873 19.9276 303.616 19.2171 303.524 18.4765C303.431 17.7359 303.506 16.984 303.742 16.276L305.784 10.2C249.536 13.416 229.586 55.12 223.974 71.14Z" fill="black"/>
<path id="Vector_37" d="M256 213.574C217.2 213.574 185.642 185.858 185.642 151.788C185.707 137.645 191.063 124.038 200.654 113.644C201.388 112.823 202.372 112.269 203.454 112.066C238.174 105.47 273.826 105.47 308.546 112.066C309.628 112.27 310.612 112.825 311.346 113.646C320.938 124.04 326.293 137.647 326.358 151.79C326.358 185.858 294.8 213.574 256 213.574ZM207 121.574C199.725 129.964 195.692 140.681 195.632 151.786C195.632 180.34 222.708 203.572 255.99 203.572C289.272 203.572 316.348 180.34 316.348 151.786C316.293 140.684 312.267 129.969 305 121.576C272.61 115.632 239.41 115.632 207.02 121.576L207 121.574Z" fill="black"/>
<path id="Vector_38" d="M301.224 151H268.666C267.677 151 266.71 150.707 265.888 150.158C265.065 149.608 264.424 148.827 264.046 147.914C263.667 147 263.568 145.994 263.761 145.024C263.954 144.054 264.431 143.163 265.13 142.464L281.41 126.184C282.348 125.247 283.619 124.72 284.945 124.72C286.271 124.72 287.542 125.247 288.48 126.184L304.76 142.464C305.459 143.163 305.936 144.054 306.129 145.024C306.322 145.994 306.223 147 305.844 147.914C305.466 148.827 304.825 149.608 304.002 150.158C303.18 150.707 302.213 151 301.224 151ZM280.738 141H289.154L284.954 136.8L280.738 141Z" fill="black"/>
<path id="Vector_39" d="M243.334 151H210.776C209.787 151 208.82 150.707 207.998 150.158C207.175 149.608 206.534 148.827 206.156 147.914C205.777 147 205.678 145.994 205.871 145.024C206.064 144.054 206.541 143.163 207.24 142.464L223.52 126.184C224.458 125.247 225.729 124.72 227.055 124.72C228.381 124.72 229.652 125.247 230.59 126.184L246.87 142.464C247.569 143.163 248.046 144.054 248.239 145.024C248.432 145.994 248.333 147 247.954 147.914C247.576 148.827 246.935 149.608 246.112 150.158C245.29 150.707 244.323 151 243.334 151ZM222.846 141H231.262L227.062 136.8L222.846 141Z" fill="black"/>
<path id="Vector_40" d="M294.746 81.14H217.254C216.502 81.1399 215.76 80.9703 215.083 80.6436C214.405 80.317 213.81 79.8418 213.342 79.2535C212.874 78.6651 212.544 77.9787 212.378 77.2454C212.212 76.5121 212.213 75.7507 212.382 75.018C214.834 65.8812 218.566 57.1372 223.468 49.046C223.972 48.1971 224.715 47.5163 225.605 47.0892C226.494 46.6621 227.491 46.5079 228.468 46.646L297.762 56.314C298.479 56.414 299.166 56.6686 299.775 57.0601C300.384 57.4516 300.901 57.9708 301.29 58.5817C301.679 59.1926 301.93 59.8807 302.027 60.5983C302.123 61.3159 302.063 62.046 301.85 62.738C300.487 67.0752 299.78 71.5917 299.752 76.138C299.752 76.7953 299.623 77.4462 299.371 78.0534C299.12 78.6607 298.751 79.2124 298.286 79.6769C297.821 80.1415 297.269 80.5099 296.662 80.7609C296.054 81.012 295.403 81.1408 294.746 81.14ZM224.034 71.14H289.988C290.174 69.2278 290.459 67.3266 290.842 65.444L230.442 57.014C227.942 61.549 225.8 66.272 224.034 71.14Z" fill="black"/>
</g>
</g>
<defs>
<clipPath id="clip0">
<rect width="512" height="512" fill="white"/>
</clipPath>
</defs>
</svg>
